<svg width="411" height="259" viewBox="0 0 411 259" fill="none" xmlns="http://www.w3.org/2000/svg">
<g clip-path="url(#clip0)">
<path fill-rule="evenodd" clip-rule="evenodd" d="M221.432 29.8762C221.432 48.7739 206.602 65.0715 187.654 65.0715C168.769 65.0715 153.432 49.7251 153.432 30.8274C153.432 11.9304 167.945 0.00854492 186.83 0.00854492C205.779 0.00854492 221.432 16.7499 221.432 29.8762Z" fill="black"/>
<path fill-rule="evenodd" clip-rule="evenodd" d="M285.184 42.1151L287.91 37.0424C288.987 35.0764 290.698 33.4912 292.79 32.6667L300.457 29.5592C322.508 27.4057 329.358 27.8289 338.272 29.5592L285.184 42.1151Z" fill="#EEEEEE"/>
<path fill-rule="evenodd" clip-rule="evenodd" d="M416.936 29.5592H319.343C319.343 29.5592 264.969 40.847 240.697 81.0513L224.791 149.158V258.864H417V29.5592H416.936Z" fill="white"/>
<path fill-rule="evenodd" clip-rule="evenodd" d="M231.571 258.928L272.383 184.797L325.933 40.5937L281.889 48.1392C281.889 48.1392 231.508 110.983 231.508 151.821V258.928H231.571Z" fill="#757575"/>
<path fill-rule="evenodd" clip-rule="evenodd" d="M292.726 136.412L290.508 129.627C290.254 128.802 289.431 128.232 288.544 128.232H286.769C284.298 128.232 282.27 126.203 282.27 123.729C282.27 123.476 282.27 123.222 282.333 122.968L281.509 121.382C281.255 120.876 281.318 120.178 281.763 119.797L281.889 119.67L281.065 119.227C280.811 119.1 280.685 118.847 280.685 118.53L280.749 115.866L278.847 114.724C278.404 114.471 278.277 113.9 278.531 113.456C278.531 113.456 278.531 113.456 278.531 113.392L282.396 107.876L281.636 106.417C281.318 105.783 281.318 104.958 281.699 104.324L285.692 97.4756L285.184 96.9682C283.854 95.5733 283.283 93.671 283.664 91.7687L284.107 89.739C284.424 88.2805 285.692 87.2663 287.149 87.2663H303.436C305.718 87.2663 307.936 88.1538 309.583 89.8027L315.604 95.8274C318.266 98.4904 319.723 102.042 319.723 105.783C319.723 109.778 318.012 113.583 315.033 116.247L312.562 118.466C310.851 119.988 309.9 122.144 309.9 124.363V132.734L292.726 136.412Z" fill="#333333"/>
<path fill-rule="evenodd" clip-rule="evenodd" d="M297.796 132.86H280.495C277.453 132.86 274.665 134.509 273.144 137.172L264.018 153.534L299.19 152.392L297.796 132.86Z" fill="#333333"/>
<path fill-rule="evenodd" clip-rule="evenodd" d="M256.73 187.08L270.102 146.685C272.383 139.836 278.721 135.207 285.945 135.271H290.825L272.383 184.86L260.469 210.353L256.73 187.08Z" fill="#545454"/>
<path fill-rule="evenodd" clip-rule="evenodd" d="M292.346 131.085H287.846C286.072 131.085 284.615 129.627 284.615 127.851C284.615 127.407 284.677 126.963 284.868 126.519L288.67 117.832C289.367 116.31 290.825 115.358 292.472 115.358H298.176L292.346 131.085Z" fill="#545454"/>
<path fill-rule="evenodd" clip-rule="evenodd" d="M281.953 48.1398L298.683 63.8026H317.315L325.933 40.6566L281.953 48.1398Z" fill="#E2E2E2"/>
<path fill-rule="evenodd" clip-rule="evenodd" d="M298.683 63.8026L281.952 48.2028C281.952 48.2028 231.571 111.046 231.571 151.885V258.991L264.842 198.621C264.842 198.557 250.519 131.592 298.683 63.8026Z" fill="#E2E2E2"/>
<path fill-rule="evenodd" clip-rule="evenodd" d="M272.383 184.86L297.986 200.016C300.394 201.411 303.436 200.65 304.894 198.303L338.608 143.895C340.573 140.724 341.903 137.11 342.474 133.432L353.754 58.032C355.085 49.2813 349.064 41.1003 340.319 39.8321C339.051 39.6425 337.784 39.5788 336.517 39.7055L325.933 40.5936L272.383 184.86Z" fill="#EEEEEE"/>
<path fill-rule="evenodd" clip-rule="evenodd" d="M281.193 181.753L331.066 47.379L337.15 46.8716C337.404 46.8716 337.657 46.8079 337.974 46.8079C340.509 46.8079 342.981 47.9494 344.628 49.9154C346.339 51.8807 347.036 54.4808 346.656 57.0179L335.313 132.354C334.869 135.144 333.918 137.744 332.461 140.153L299.824 192.85L281.193 181.753Z" fill="#E2E2E2"/>
<path fill-rule="evenodd" clip-rule="evenodd" d="M315.477 205.977L416.936 258.928V173.509L364.527 153.977C356.986 151.187 348.558 154.041 344.185 160.826L315.477 205.977Z" fill="#EEEEEE"/>
<path fill-rule="evenodd" clip-rule="evenodd" d="M246.337 44.7153H72.6318C68.5759 44.7153 64.7738 46.8716 62.6194 50.3592L3.61898 147.763C-0.436849 154.485 -1.13379 162.729 1.78121 170.022L19.6522 215.108C21.3634 219.357 25.039 222.528 29.5387 223.416L44.8121 226.524C63.2527 230.265 79.0329 242.186 87.715 258.928H231.635V151.821L237.972 104.198C240.127 87.9634 243.549 71.9199 248.175 56.1934L250.076 49.7251C250.71 47.6324 249.506 45.476 247.414 44.842C247.098 44.779 246.717 44.7153 246.337 44.7153ZM238.986 59.1735L222.572 130.324C221.938 133.178 219.34 135.271 216.361 135.271H40.1222C38.0307 135.271 36.3194 133.558 36.3194 131.466C36.3194 130.768 36.5095 130.071 36.8898 129.5L79.223 58.9832C80.8707 56.2564 83.8493 54.5445 87.0809 54.5445H235.247C237.338 54.5445 239.05 56.2564 239.05 58.3491C239.112 58.6031 239.05 58.8565 238.986 59.1735Z" fill="#EEEEEE"/>
<path fill-rule="evenodd" clip-rule="evenodd" d="M235.247 54.4808H87.018C83.7856 54.4808 80.807 56.1934 79.1594 58.9202L36.8898 129.436C35.8126 131.212 36.383 133.558 38.1572 134.637C38.7276 135.017 39.4245 135.207 40.1222 135.207H216.361C219.34 135.207 221.875 133.178 222.572 130.261L238.986 59.1105C239.429 57.0809 238.162 54.9882 236.134 54.5445C235.817 54.5445 235.563 54.4808 235.247 54.4808Z" fill="white"/>
<path fill-rule="evenodd" clip-rule="evenodd" d="M103.241 50.7399H91.4541L77.9556 139.012H89.7429L103.241 50.7399Z" fill="#EEEEEE"/>
<path fill-rule="evenodd" clip-rule="evenodd" d="M26.4336 151.821H208.06C214.587 151.821 219.91 157.148 219.91 163.68V258.928H125.802L80.9971 231.343C57.6758 216.948 39.298 195.831 28.2713 170.783L22.5043 157.719C21.5536 155.563 22.5672 153.09 24.6587 152.202C25.2927 151.949 25.8631 151.821 26.4336 151.821Z" fill="#E2E2E2"/>
<path fill-rule="evenodd" clip-rule="evenodd" d="M228.593 167.675H22.1876V187.651H228.593V167.675Z" fill="#EEEEEE"/>
<path fill-rule="evenodd" clip-rule="evenodd" d="M219.34 29.5592L219.847 36.4713C220.164 40.4032 219.277 44.2715 217.376 47.759L214.08 53.72C212.812 56.066 212.116 58.6661 212.116 61.3299V63.9292C212.116 65.1981 211.102 66.2123 209.834 66.2123C209.453 66.2123 209.137 66.1493 208.82 65.9589L206.095 64.564L205.208 67.0367C204.764 68.3049 203.687 69.2561 202.42 69.5731L200.899 69.9539L200.708 70.588C200.202 72.2369 198.681 73.3147 196.906 73.3147L195.322 75.9785C193.864 78.4519 190.632 79.2757 188.161 77.8171C188.034 77.7541 187.907 77.6904 187.78 77.5638L178.084 70.588L167.438 86.1248L145.511 65.1981L149.947 59.9343C152.038 57.4616 153.686 54.6718 154.763 51.6273C155.841 48.7102 156.411 45.6664 156.474 42.5596L156.664 29.5592H219.34Z" fill="#8E421F"/>
<path fill-rule="evenodd" clip-rule="evenodd" d="M66.2949 221.45L66.0412 239.016L59.5142 258.928H114.014L131.442 233.435L90.7564 205.977L66.2949 221.45Z" fill="#142328"/>
<path fill-rule="evenodd" clip-rule="evenodd" d="M178.084 194.499L185.626 244.279C185.626 244.279 181.379 248.211 177.451 249.479L177.768 221.989L178.084 194.499Z" fill="#0C45AE"/>
<path fill-rule="evenodd" clip-rule="evenodd" d="M177.704 223.543L183.344 229.313L178.084 194.499L177.704 223.543Z" fill="#053182"/>
<path fill-rule="evenodd" clip-rule="evenodd" d="M145.511 65.1982L139.617 69.3198C128.78 76.866 120.352 87.393 115.535 99.6949L104.825 126.71C101.847 134.129 97.8545 141.104 92.848 147.382L85.3704 156.704C79.6662 163.807 77.0678 172.938 78.0822 181.943L76.4345 184.163C68.8933 194.372 65.217 206.992 66.1684 219.674L66.2949 221.45L81.8206 217.328C96.4606 213.46 111.923 219.421 120.162 232.104C128.147 244.406 141.772 251.762 156.411 251.762H177.324L178.338 162.665C178.338 161.841 178.528 161.08 178.845 160.383L181.95 153.343C186.006 144.212 186.64 133.875 183.725 124.363L170.67 81.3684L145.511 65.1982Z" fill="#276EF1"/>
<path fill-rule="evenodd" clip-rule="evenodd" d="M221.368 29.5599L221.432 29.8762C222.255 32.6037 222.066 35.5838 220.861 38.1839C220.228 39.5151 218.643 40.1492 217.249 39.5788L207.807 35.7735C203.307 33.9349 198.174 34.4423 194.118 36.9794L192.28 38.1839C190.315 39.3884 187.78 39.3254 185.943 37.9935L185.119 37.3594V35.3935C185.119 33.0467 183.218 31.1444 180.873 31.1444C178.528 31.1444 176.627 33.0467 176.627 35.3935C176.627 35.5838 176.627 35.7735 176.69 35.9646C177.07 38.564 175.866 41.1003 173.712 42.4959L171.557 43.8908C167.564 46.4272 163.128 48.1398 158.439 48.7739L155.714 49.1539V45.2864C155.714 42.7493 155.334 40.2766 154.573 37.8669L154.447 37.5498C153.876 35.7105 153.622 33.8082 153.622 31.8422V29.5599H187.495H221.368Z" fill="black"/>
<path fill-rule="evenodd" clip-rule="evenodd" d="M145.511 65.1982L152.355 54.4808L159.96 62.3447C166.931 69.5102 171.431 78.7053 172.888 88.5975L145.511 65.1982Z" fill="#FFF2D9"/>
<path fill-rule="evenodd" clip-rule="evenodd" d="M139.934 178.582L177.705 223.543L178.021 195.514L139.934 178.582Z" fill="#0C45AE"/>
<path fill-rule="evenodd" clip-rule="evenodd" d="M215.474 46.4272C215.855 45.7931 215.601 44.9693 214.968 44.5886L213.764 43.8271C211.546 42.4959 208.947 42.0522 206.412 42.4959L203.687 43.0033C203.561 43.0033 203.497 43.0663 203.497 43.193C203.497 43.3204 203.561 43.3834 203.687 43.3834L207.11 43.8271C208.82 44.0812 210.469 44.7153 211.862 45.7301L213.446 46.8079C214.08 47.2517 214.905 47.125 215.411 46.4909C215.411 46.4909 215.411 46.4272 215.474 46.4272Z" fill="black"/>
<path fill-rule="evenodd" clip-rule="evenodd" d="M209.801 52.6195C210.437 51.921 210.555 50.9911 210.064 50.5424C209.573 50.0945 208.658 50.2969 208.022 50.9954C207.385 51.6939 207.266 52.6238 207.757 53.0718C208.248 53.5211 209.163 53.318 209.801 52.6195Z" fill="black"/>
<path fill-rule="evenodd" clip-rule="evenodd" d="M211.292 52.0711L211.672 51.7547L211.038 50.8666C209.707 48.9006 207.299 47.9494 204.955 48.4569L202.42 49.028L205.525 49.2176C207.299 49.345 208.947 50.2962 209.961 51.7547L210.025 51.8807C210.278 52.2615 210.848 52.3889 211.228 52.1348C211.228 52.1348 211.292 52.1348 211.292 52.0711Z" fill="black"/>
<path fill-rule="evenodd" clip-rule="evenodd" d="M211.672 51.7547L212.94 50.7399L211.165 51.374L211.672 51.7547Z" fill="black"/>
<path fill-rule="evenodd" clip-rule="evenodd" d="M185.056 37.4861L194.435 53.657L195.639 50.7399L185.056 37.4861Z" fill="#5F2C14"/>
<path fill-rule="evenodd" clip-rule="evenodd" d="M175.993 39.2617L175.106 74.9637L178.021 70.588L175.993 39.2617Z" fill="#5F2C14"/>
<path fill-rule="evenodd" clip-rule="evenodd" d="M212.623 63.1055L196.969 49.1539L195.195 51.1836L192.914 55.4319C190.442 60.0617 186.767 63.9929 182.267 66.7834L180.302 67.9879L178.084 70.4613L192.09 81.0513L212.687 68.939L212.623 63.1055Z" fill="#CCDFE5"/>
<path fill-rule="evenodd" clip-rule="evenodd" d="M196.969 49.2177L185.056 35.4565V37.4862L195.132 51.3103L196.969 49.2177Z" fill="#142328"/>
<path fill-rule="evenodd" clip-rule="evenodd" d="M178.021 70.588L180.239 68.0516L177.704 41.6714L175.993 39.2617L178.021 70.588Z" fill="#142328"/>
<path fill-rule="evenodd" clip-rule="evenodd" d="M185.056 37.8669V35.9009C185.056 33.2378 182.901 31.1444 180.302 31.1444C177.641 31.1444 175.549 33.3008 175.549 35.9009C175.549 36.0913 175.549 36.2816 175.613 36.4713L176.5 43.9545C176.69 45.7301 178.211 47.0613 179.986 47.0613C182.141 47.0613 183.915 45.2864 183.915 43.13C183.915 43.0663 183.915 43.0034 183.915 42.9397L183.154 40.6566C182.838 39.7692 183.218 38.7543 184.105 38.3106L185.056 37.8669Z" fill="#993F21"/>
<path fill-rule="evenodd" clip-rule="evenodd" d="M183.471 41.8619L183.091 40.7203C182.774 39.8322 183.154 38.8181 184.041 38.3743L185.056 37.8669H184.485C183.915 37.8669 183.408 37.4225 183.344 36.8521L183.281 36.4713C183.091 34.9498 181.76 33.8083 180.176 33.9986C178.655 34.189 177.514 35.5202 177.641 37.1054L177.958 40.4663C178.148 42.3693 179.859 43.8278 181.76 43.6375C182.077 43.6375 182.331 43.5738 182.647 43.4471C183.281 43.2567 183.661 42.5596 183.408 41.8619C183.472 41.8619 183.471 41.8619 183.471 41.8619Z" fill="#5F2C14"/>
<path fill-rule="evenodd" clip-rule="evenodd" d="M180.556 46.1101C181.011 46.1101 181.379 45.7414 181.379 45.2864C181.379 44.8306 181.011 44.4619 180.556 44.4619C180.101 44.4619 179.732 44.8306 179.732 45.2864C179.732 45.7414 180.101 46.1101 180.556 46.1101Z" fill="#F6F6F6"/>
<path fill-rule="evenodd" clip-rule="evenodd" d="M173.015 107.685C173.854 107.685 174.536 107.004 174.536 106.163C174.536 105.323 173.854 104.642 173.015 104.642C172.174 104.642 171.494 105.323 171.494 106.163C171.494 107.004 172.174 107.685 173.015 107.685Z" fill="#8EA3AD"/>
<path fill-rule="evenodd" clip-rule="evenodd" d="M167.248 80.9883C168.088 80.9883 168.769 80.3068 168.769 79.4661C168.769 78.626 168.088 77.9438 167.248 77.9438C166.408 77.9438 165.727 78.626 165.727 79.4661C165.727 80.3068 166.408 80.9883 167.248 80.9883Z" fill="#8EA3AD"/>
<path fill-rule="evenodd" clip-rule="evenodd" d="M176.057 157.973C176.897 157.973 177.577 157.292 177.577 156.451C177.577 155.611 176.897 154.929 176.057 154.929C175.217 154.929 174.536 155.611 174.536 156.451C174.536 157.292 175.217 157.973 176.057 157.973Z" fill="#8EA3AD"/>
<path fill-rule="evenodd" clip-rule="evenodd" d="M231.571 90.8176L214.397 124.554L194.625 135.207H216.361C219.34 135.207 221.875 133.178 222.572 130.261L231.571 90.8176Z" fill="white"/>
<path fill-rule="evenodd" clip-rule="evenodd" d="M152.419 187.08L143.673 181.943C140.822 180.295 138.729 177.567 137.906 174.334L125.295 125.314C122.696 115.168 121.746 104.578 122.507 94.1148L122.886 88.8516C123.647 78.3246 132.456 70.1443 143.039 70.1443C153.813 70.1443 162.685 78.5779 163.255 89.2953L166.931 159.114L152.419 187.08Z" fill="#CCDFE5"/>
<path fill-rule="evenodd" clip-rule="evenodd" d="M205.461 203.63L161.291 190.758L166.36 162.919L210.278 191.709L205.461 203.63Z" fill="#8E421F"/>
<path fill-rule="evenodd" clip-rule="evenodd" d="M240.127 199.763C239.176 199.255 238.605 198.304 238.605 197.226V196.021L242.724 194.119H246.717C248.365 194.119 249.886 193.357 250.837 192.09L252.611 189.807C252.991 189.299 252.928 188.539 252.421 188.158C252.23 188.031 251.977 187.904 251.724 187.904L236.007 187.27C234.233 187.207 232.458 187.333 230.747 187.714L212.623 191.328L199.187 182.514L192.533 201.538L205.461 203.758L206.602 205.724C208.123 208.387 210.405 210.543 213.13 211.938L231.445 221.26C233.029 222.084 234.93 221.64 236.07 220.309L237.084 219.04L238.543 219.548C240.063 220.118 241.774 219.548 242.598 218.216L243.295 217.138L246.971 217.836C248.809 218.153 250.646 217.455 251.787 215.997L252.864 214.601L255.653 216.06L260.469 210.416L240.127 199.763Z" fill="#545454"/>
<path fill-rule="evenodd" clip-rule="evenodd" d="M179.035 171.417L165.98 192.47C164.903 194.183 162.685 194.753 160.974 193.738L150.201 187.65C149.25 187.08 148.87 185.875 149.44 184.86C149.44 184.797 149.503 184.797 149.503 184.733L166.931 159.178L178.401 168.119C179.479 168.943 179.732 170.339 179.035 171.417Z" fill="#FFF2D9"/>
<path fill-rule="evenodd" clip-rule="evenodd" d="M179.162 171.29L170.226 193.358L166.17 192.153L179.162 171.29Z" fill="#5F2C14"/>
<path fill-rule="evenodd" clip-rule="evenodd" d="M198.617 184.036L192.977 200.016L190.695 199.318L198.617 184.036Z" fill="#5F2C14"/>
<path fill-rule="evenodd" clip-rule="evenodd" d="M237.084 218.914L235.247 217.836L236.324 219.865L237.084 218.914Z" fill="black"/>
<path fill-rule="evenodd" clip-rule="evenodd" d="M243.232 217.011L241.521 216.377L242.535 218.089L243.232 217.011Z" fill="black"/>
<path fill-rule="evenodd" clip-rule="evenodd" d="M252.865 214.474L250.457 213.079L251.788 215.87L252.865 214.474Z" fill="black"/>
<path fill-rule="evenodd" clip-rule="evenodd" d="M242.724 194.119L236.704 194.499C236.007 194.563 235.5 195.134 235.563 195.768C235.563 195.894 235.563 195.957 235.627 196.085C236.134 197.86 237.465 199.255 239.176 199.827L242.471 200.967L239.746 198.938C239.366 198.621 239.049 198.178 238.922 197.733C238.732 196.782 239.24 195.768 240.127 195.387L242.724 194.119Z" fill="black"/>
<path fill-rule="evenodd" clip-rule="evenodd" d="M272.383 184.86C272.383 184.86 240.38 234.831 231.571 258.928H242.598L272.383 184.86Z" fill="white"/>
<path fill-rule="evenodd" clip-rule="evenodd" d="M176.057 127.043L172.901 127.544L173.526 131.494L169.579 132.12L170.08 135.279L174.025 134.654L174.65 138.604L177.807 138.104L177.182 134.153L181.128 133.528L180.628 130.367L176.682 130.993L176.057 127.043Z" fill="#E11900"/>
</g>
<defs>
<clipPath id="clip0">
<rect width="417" height="259" fill="white"/>
</clipPath>
</defs>
</svg>