<svg width="185" height="136" viewBox="0 0 185 136" fill="none" xmlns="http://www.w3.org/2000/svg">
<path d="M0 104.503C0 100.179 0.807169 96.1143 2.42151 92.3091C4.03584 88.5039 6.25556 85.1887 9.08065 82.3636C11.9634 79.5385 15.365 77.3188 19.2856 75.7045C23.2638 74.0325 27.5879 73.1965 32.2579 73.1965C37.7351 73.1965 42.6935 74.4073 47.1329 76.8288C51.5723 79.1926 55.2911 82.3348 58.2891 86.2553L49.2085 92.9145C47.2482 90.1471 44.7691 87.9562 41.771 86.3418C38.8306 84.6698 35.7172 83.8338 32.4309 83.8338C29.5481 83.8338 26.8384 84.3527 24.3015 85.3905C21.8224 86.3707 19.6603 87.7832 17.8154 89.6282C15.9704 91.4155 14.5002 93.5775 13.4048 96.1143C12.367 98.6512 11.8481 101.447 11.8481 104.503C11.8481 107.616 12.3958 110.47 13.4913 113.065C14.5867 115.602 16.0569 117.793 17.9019 119.638C19.7468 121.425 21.9089 122.809 24.388 123.789C26.9249 124.769 29.6058 125.259 32.4309 125.259C35.9478 125.259 39.2053 124.481 42.2034 122.924C45.2015 121.31 47.623 119.09 49.4679 116.265L58.5486 122.924C55.6658 126.844 52.0047 130.015 47.5653 132.437C43.1259 134.801 38.1099 135.983 32.5174 135.983C27.732 135.983 23.3502 135.176 19.3721 133.561C15.3939 131.947 11.9634 129.727 9.08065 126.902C6.25556 124.077 4.03584 120.762 2.42151 116.957C0.807169 113.094 0 108.943 0 104.503Z" fill="#00A7DC"/>
<path d="M62.2173 122.319C62.2173 118.283 63.5146 115.14 66.109 112.892C68.7035 110.643 72.3934 109.346 77.1788 109L90.3241 108.049V106.319C90.3241 104.128 89.6034 102.399 88.162 101.13C86.7783 99.8619 84.7604 99.2277 82.1083 99.2277C78.1301 99.2277 74.1807 100.554 70.2602 103.206L65.5036 95.163C68.0981 93.2604 70.8656 91.7902 73.806 90.7524C76.804 89.7146 80.0327 89.1957 83.492 89.1957C86.1441 89.1957 88.5656 89.5705 90.7565 90.32C92.9474 91.0695 94.8212 92.1361 96.3779 93.5199C97.9345 94.9036 99.1453 96.5756 100.01 98.5358C100.875 100.438 101.307 102.572 101.307 104.936V122.491C101.307 124.221 102.143 125.086 103.815 125.086H106.15V134.858H100.875C98.6841 134.858 96.8103 134.397 95.2536 133.475C93.6969 132.552 92.515 131.255 91.7078 129.583C90.1511 131.601 88.162 133.186 85.7405 134.34C83.3767 135.435 80.6957 135.983 77.6977 135.983C75.4491 135.983 73.3735 135.637 71.4709 134.945C69.626 134.253 68.0116 133.302 66.6279 132.091C65.2442 130.88 64.1488 129.439 63.3416 127.767C62.5921 126.095 62.2173 124.279 62.2173 122.319ZM73.0276 122.232C73.0276 123.789 73.6907 125.028 75.0167 125.951C76.3428 126.873 78.0724 127.334 80.2057 127.334C81.5894 127.334 82.8866 127.133 84.0974 126.729C85.3658 126.268 86.4612 125.691 87.3837 124.999C88.3062 124.25 89.0269 123.385 89.5458 122.405C90.0646 121.425 90.3241 120.358 90.3241 119.205V116.351L78.7355 117.389C74.9302 117.735 73.0276 119.349 73.0276 122.232Z" fill="#00A7DC"/>
<path d="M132.175 100.093C129.465 100.093 127.188 101.015 125.343 102.86C123.555 104.705 122.662 107.357 122.662 110.816V134.858H111.333V90.1471H122.575V94.9901C123.728 93.3181 125.17 92.0208 126.899 91.0984C128.687 90.1759 130.791 89.7146 133.213 89.7146H136.239V100.093H132.175Z" fill="#00A7DC"/>
<path d="M138.491 112.46C138.491 109.346 139.067 106.377 140.22 103.552C141.431 100.727 143.074 98.2476 145.15 96.1143C147.225 93.9811 149.676 92.2803 152.501 91.0119C155.326 89.7435 158.382 89.1093 161.668 89.1093C165.012 89.1093 168.068 89.7146 170.835 90.9254C173.66 92.0785 176.082 93.7217 178.1 95.8549C180.175 97.9305 181.761 100.438 182.856 103.379C184.009 106.319 184.586 109.519 184.586 112.978V116.265H150.079C150.829 119.205 152.328 121.627 154.576 123.529C156.825 125.374 159.506 126.297 162.619 126.297C165.041 126.297 167.174 125.864 169.019 124.999C170.922 124.077 172.709 122.549 174.381 120.416L182.251 126.297C180.002 129.41 177.206 131.803 173.862 133.475C170.576 135.147 166.857 135.983 162.706 135.983C159.304 135.983 156.104 135.406 153.106 134.253C150.166 133.042 147.6 131.399 145.409 129.324C143.276 127.248 141.575 124.769 140.307 121.886C139.096 119.003 138.491 115.861 138.491 112.46ZM161.409 98.7953C158.756 98.7953 156.421 99.5736 154.403 101.13C152.443 102.687 151.059 104.849 150.252 107.616H173.17C172.363 104.849 170.893 102.687 168.76 101.13C166.626 99.5736 164.176 98.7953 161.409 98.7953Z" fill="#00A7DC"/>
<path d="M10.7137 37.3604C10.7137 39.7819 11.0884 42.0016 11.8379 44.0195C12.5875 45.9798 13.6253 47.6806 14.9513 49.122C16.2774 50.5057 17.8341 51.5723 19.6214 52.3218C21.4663 53.0714 23.4554 53.4461 25.5886 53.4461C27.6642 53.4461 29.5957 53.0714 31.383 52.3218C33.2279 51.5147 34.8134 50.4192 36.1395 49.0355C37.5232 47.5941 38.5898 45.8933 39.3393 43.9331C40.0889 41.9728 40.4636 39.7819 40.4636 37.3604V0H49.5443V60.5377H40.5501V54.9163C38.5322 57.0495 36.1395 58.6927 33.3721 59.8458C30.6623 60.9989 27.7219 61.5755 24.5509 61.5755C21.3222 61.5755 18.2953 61.0277 15.4702 59.9323C12.7028 58.7792 10.2813 57.1649 8.20569 55.0893C6.18777 53.0137 4.57343 50.5345 3.36267 47.6518C2.20958 44.7114 1.63303 41.4539 1.63303 37.8793V0H10.7137V37.3604Z" fill="black"/>
<path d="M58.4715 0H67.2063V22.053C69.2242 20.0351 71.5592 18.4496 74.2113 17.2965C76.8635 16.0857 79.7462 15.4803 82.8596 15.4803C86.0883 15.4803 89.1151 16.0857 91.9402 17.2965C94.7653 18.5072 97.2157 20.1504 99.2912 22.226C101.367 24.3016 103.01 26.7519 104.221 29.577C105.431 32.4021 106.037 35.4001 106.037 38.5711C106.037 41.7422 105.431 44.7402 104.221 47.5653C103.01 50.3328 101.367 52.7543 99.2912 54.8298C97.2157 56.9054 94.7653 58.5486 91.9402 59.7593C89.1151 60.9701 86.0883 61.5755 82.8596 61.5755C79.7462 61.5755 76.8346 60.9989 74.1249 59.8458C71.4727 58.6351 69.1377 57.0207 67.1198 55.0028V60.5377H58.4715V0ZM67.0333 38.5711C67.0333 40.7044 67.4081 42.6935 68.1576 44.5384C68.9647 46.3834 70.0602 47.9977 71.4439 49.3814C72.8276 50.7652 74.442 51.8606 76.2869 52.6678C78.1319 53.4749 80.121 53.8785 82.2542 53.8785C84.3298 53.8785 86.2901 53.4749 88.135 52.6678C89.98 51.8606 91.5655 50.7652 92.8915 49.3814C94.2753 47.9977 95.3707 46.3834 96.1779 44.5384C96.985 42.6935 97.3886 40.7044 97.3886 38.5711C97.3886 36.4379 96.985 34.4488 96.1779 32.6039C95.3707 30.7013 94.2753 29.0581 92.8915 27.6744C91.5655 26.2906 89.98 25.224 88.135 24.4745C86.2901 23.6673 84.3298 23.2638 82.2542 23.2638C80.1786 23.2638 78.2184 23.6673 76.3734 24.4745C74.5284 25.224 72.9141 26.2906 71.5304 27.6744C70.1467 29.0581 69.0512 30.7013 68.2441 32.6039C67.4369 34.4488 67.0333 36.4379 67.0333 38.5711Z" fill="black"/>
<path d="M111.218 38.4847C111.218 35.3713 111.794 32.4309 112.947 29.6635C114.1 26.896 115.686 24.4745 117.704 22.3989C119.722 20.2657 122.114 18.5937 124.882 17.383C127.649 16.1722 130.647 15.5668 133.876 15.5668C137.047 15.5668 139.988 16.1434 142.697 17.2965C145.407 18.4496 147.742 20.0639 149.702 22.1395C151.663 24.1574 153.19 26.5789 154.286 29.404C155.381 32.1714 155.929 35.1983 155.929 38.4847V41.3386H120.039C120.327 43.1259 120.904 44.7979 121.769 46.3546C122.633 47.8536 123.7 49.1796 124.968 50.3327C126.294 51.4282 127.765 52.293 129.379 52.9272C131.051 53.5614 132.809 53.8785 134.654 53.8785C139.901 53.8785 144.139 51.7165 147.367 47.3923L153.681 52.0624C151.49 55.0028 148.78 57.309 145.551 58.981C142.323 60.653 138.69 61.489 134.654 61.489C131.368 61.489 128.284 60.9124 125.401 59.7593C122.576 58.6062 120.097 56.9919 117.963 54.9163C115.888 52.8407 114.245 50.4192 113.034 47.6518C111.823 44.8267 111.218 41.771 111.218 38.4847ZM133.703 23.1773C130.417 23.1773 127.534 24.2151 125.055 26.2906C122.633 28.3086 121.019 31.0183 120.212 34.42H147.108C146.358 31.0183 144.744 28.3086 142.265 26.2906C139.843 24.2151 136.989 23.1773 133.703 23.1773Z" fill="black"/>
<path d="M181.368 24.2151C178.485 24.2151 176.121 25.224 174.276 27.242C172.431 29.2599 171.509 31.9985 171.509 35.4578V60.5377H162.774V16.4317H171.422V21.88C172.518 20.0927 173.93 18.6802 175.66 17.6424C177.447 16.6046 179.552 16.0857 181.973 16.0857H185V24.2151H181.368Z" fill="black"/>
</svg>
